<?xml version="1.0" standalone="no"?>
<!DOCTYPE svg PUBLIC "-//W3C//DTD SVG 20010904//EN"
 "http://www.w3.org/TR/2001/REC-SVG-20010904/DTD/svg10.dtd">
<svg version="1.0" xmlns="http://www.w3.org/2000/svg"
 width="1568.000000pt" height="1568.000000pt" viewBox="0 0 1568.000000 1568.000000"
 preserveAspectRatio="xMidYMid meet">
<metadata>
Created by potrace 1.14, written by Peter Selinger 2001-2017
</metadata>
<g transform="translate(0.000000,1568.000000) scale(0.100000,-0.100000)"
fill="#000000" stroke="none">
<path d="M5761 11918 c-28 -14 -54 -37 -73 -67 l-29 -46 3 -412 3 -411 31 -38
c16 -21 48 -47 70 -58 l39 -21 3095 -6 c1702 -3 3106 -8 3120 -12 14 -3 72
-14 130 -23 883 -137 1656 -694 2057 -1479 194 -380 289 -748 309 -1190 7
-154 18 -191 63 -218 26 -15 73 -17 481 -17 498 0 487 -1 525 63 16 27 17 48
12 201 -20 559 -155 1091 -403 1591 -200 403 -434 725 -761 1045 -443 435
-952 741 -1548 933 -272 87 -619 155 -911 176 -94 8 -1132 11 -3155 11 l-3014
0 -44 -22z"/>
<path d="M4285 10310 c-681 -39 -1223 -259 -1649 -670 -365 -352 -593 -797
-672 -1315 -26 -169 -27 -580 -1 -745 73 -471 262 -846 601 -1198 153 -158
275 -260 445 -374 422 -280 881 -407 1474 -408 326 0 544 29 814 110 155 46
378 140 410 173 l23 23 -2 683 -3 684 -101 -129 c-162 -206 -291 -317 -481
-413 -381 -191 -869 -180 -1298 29 -382 185 -628 508 -707 928 -20 105 -17
418 6 522 117 545 493 938 1018 1065 279 67 575 52 828 -42 125 -47 188 -79
296 -152 125 -84 207 -162 332 -314 l107 -132 3 680 2 680 -28 26 c-63 57
-407 186 -622 233 -237 51 -524 72 -795 56z"/>
<path d="M6587 10313 c-4 -3 -7 -1065 -7 -2360 l0 -2353 570 0 570 0 0 794 0
794 328 5 c348 6 462 17 644 63 185 46 330 109 483 208 396 258 615 707 615
1261 0 368 -100 699 -292 970 -77 107 -248 273 -358 346 -258 172 -504 244
-913 269 -180 11 -1630 14 -1640 3z m1492 -1124 c212 -20 333 -64 437 -161
106 -100 154 -218 154 -381 0 -150 -51 -277 -150 -378 -61 -62 -118 -95 -225
-129 -64 -21 -94 -24 -332 -28 l-263 -4 0 539 c0 297 3 543 7 546 10 11 245 8
372 -4z"/>
<path d="M11700 10310 c-714 -55 -1209 -453 -1345 -1080 -22 -101 -31 -371
-16 -481 44 -328 215 -597 507 -795 180 -123 324 -189 674 -309 258 -89 345
-122 433 -166 145 -74 228 -148 276 -249 23 -50 26 -66 26 -171 0 -113 -1
-116 -38 -191 -87 -177 -266 -271 -512 -270 -237 0 -455 86 -622 246 -92 87
-145 160 -212 294 -29 56 -54 102 -57 102 -4 0 -637 -582 -723 -665 l-34 -33
47 -66 c222 -311 470 -528 779 -681 271 -134 538 -195 855 -195 489 0 905 152
1205 440 132 126 215 238 292 395 109 222 145 374 152 642 4 144 2 203 -12
285 -72 431 -289 730 -685 945 -109 60 -308 142 -525 217 -461 161 -524 189
-616 274 -75 69 -93 115 -87 219 6 95 34 160 98 224 110 110 316 154 531 113
198 -37 333 -128 497 -332 61 -77 77 -91 87 -80 7 7 144 181 305 386 l293 374
-74 74 c-333 337 -760 518 -1269 537 -69 3 -172 1 -230 -3z"/>
<path d="M134 7979 c-56 -28 -66 -117 -44 -395 48 -602 189 -1114 450 -1629
492 -974 1334 -1702 2345 -2028 242 -78 475 -129 780 -169 67 -8 969 -12 3555
-15 l3465 -4 45 23 c26 14 57 41 75 66 l30 44 3 416 3 417 -23 44 c-13 25 -40
59 -61 75 l-39 31 -3416 6 c-3764 6 -3466 0 -3782 65 -428 88 -863 293 -1210
571 -116 93 -325 298 -422 413 -350 417 -591 944 -672 1470 -9 58 -19 119 -22
135 -2 17 -9 115 -15 220 -10 203 -17 227 -65 245 -35 14 -952 12 -980 -1z"/>
</g>
</svg>
